<?xml version="1.0" standalone="no"?>
<!DOCTYPE svg PUBLIC "-//W3C//DTD SVG 20010904//EN"
 "http://www.w3.org/TR/2001/REC-SVG-20010904/DTD/svg10.dtd">
<svg version="1.0" xmlns="http://www.w3.org/2000/svg"
 width="481.000000pt" height="481.000000pt" viewBox="0 0 481.000000 481.000000"
 preserveAspectRatio="xMidYMid meet">
<metadata>
Created by potrace 1.14, written by Peter Selinger 2001-2017
</metadata>
<g transform="translate(0.000000,481.000000) scale(0.100000,-0.100000)"
fill="#000000" stroke="none">
<path d="M224 4687 c-4 -12 29 -114 56 -172 15 -33 61 -149 65 -165 2 -8 29
-78 60 -155 31 -77 63 -158 72 -180 8 -22 19 -49 23 -60 4 -11 16 -37 25 -59
9 -21 21 -50 25 -65 5 -14 22 -60 38 -101 148 -382 264 -679 272 -695 5 -11
45 -114 90 -230 45 -115 86 -218 91 -227 5 -10 9 -22 9 -28 0 -6 9 -29 20 -53
10 -23 53 -129 95 -236 41 -106 81 -208 89 -225 7 -17 19 -47 26 -66 7 -19 18
-48 25 -65 8 -16 22 -52 33 -80 10 -27 23 -59 27 -70 5 -11 9 -22 10 -25 2 -9
67 -174 80 -205 7 -16 23 -57 35 -90 13 -33 29 -73 36 -90 6 -16 33 -84 59
-150 26 -66 51 -129 56 -140 4 -11 17 -42 27 -70 10 -27 23 -59 27 -70 5 -11
9 -22 10 -25 1 -3 5 -14 10 -25 14 -36 63 -159 91 -230 15 -38 27 -76 27 -82
0 -7 3 -13 7 -13 4 0 14 -21 22 -47 24 -73 107 -285 122 -313 8 -14 15 -29 15
-35 3 -30 15 -45 34 -46 123 -5 666 -3 679 3 9 4 24 31 33 60 10 29 21 58 24
63 4 6 17 37 30 70 12 33 27 69 32 80 4 11 17 43 28 70 11 28 27 68 37 90 10
22 19 49 21 60 2 10 9 23 16 27 6 4 9 8 5 8 -7 0 15 58 57 155 8 17 23 53 34
82 12 28 26 64 33 80 6 15 12 30 13 33 6 25 30 80 35 80 3 0 6 9 7 19 1 11 13
45 27 75 14 31 26 59 26 62 0 3 8 24 19 47 17 39 32 75 36 87 6 16 19 49 31
77 8 17 14 34 14 37 0 3 9 25 19 49 10 23 40 96 67 162 26 66 52 126 57 133 5
6 6 12 3 12 -4 0 0 12 8 28 8 15 37 84 65 153 27 69 56 138 62 155 7 16 13 31
14 34 1 3 6 16 12 30 6 14 34 84 63 155 52 131 64 160 94 227 9 20 16 39 16
43 0 4 7 21 15 38 8 18 24 57 36 87 11 30 26 66 32 80 6 14 11 27 12 30 1 3 6
16 12 30 6 14 18 42 26 62 8 20 13 38 11 41 -3 2 2 10 11 17 8 7 15 19 15 27
0 8 9 33 20 55 11 23 20 46 20 51 0 5 13 39 29 75 26 63 42 100 46 112 1 3 6
16 12 30 24 54 36 85 39 95 1 6 17 44 34 85 17 41 33 80 34 85 2 6 9 24 16 40
7 17 13 33 12 38 -1 4 3 7 10 7 6 0 9 3 6 6 -3 3 41 121 99 262 58 141 105
263 106 270 0 6 4 12 9 12 4 0 8 6 8 13 0 6 18 57 40 112 53 130 54 132 78
185 27 61 34 88 27 100 -4 6 -11 7 -18 3 -17 -10 -97 -9 -97 2 0 7 -3 7 -8 0
-8 -12 -192 -14 -192 -2 0 5 -6 5 -12 1 -16 -10 -112 -11 -156 -3 -17 4 -34 4
-37 0 -4 -7 -40 -7 -55 -1 -3 1 -9 2 -15 0 -37 -7 -105 -6 -105 2 0 5 -5 6
-11 2 -17 -10 -89 -11 -89 -2 0 5 -8 5 -17 1 -10 -5 -27 -8 -38 -8 -16 0 -27
-17 -54 -90 -18 -49 -89 -238 -158 -420 -68 -181 -126 -337 -128 -346 -2 -9
-15 -45 -28 -80 -14 -35 -55 -145 -92 -244 -36 -99 -80 -216 -97 -260 -16 -44
-31 -84 -32 -90 -2 -5 -7 -21 -13 -35 -6 -14 -20 -52 -32 -85 -12 -33 -25 -67
-28 -75 -3 -8 -7 -17 -8 -20 -7 -30 -30 -88 -38 -97 -5 -7 -6 -13 -2 -13 4 0
2 -7 -5 -15 -7 -8 -9 -15 -5 -15 4 0 3 -6 -2 -12 -6 -7 -27 -62 -48 -123 -21
-60 -41 -114 -45 -120 -4 -5 -11 -23 -15 -40 -10 -38 -9 -34 -24 -70 -12 -29
-69 -180 -75 -200 -2 -5 -8 -23 -15 -40 -6 -16 -15 -41 -20 -55 -5 -14 -12
-34 -17 -45 -4 -11 -8 -25 -9 -31 -2 -6 -10 -27 -18 -45 -17 -40 -80 -208 -84
-224 -2 -10 -88 -238 -99 -265 -4 -8 -8 -19 -10 -25 -11 -40 -50 -141 -57
-143 -4 -2 -7 -10 -7 -17 0 -7 -10 -39 -22 -71 l-22 -58 -15 35 c-8 19 -16 39
-17 44 -2 6 -16 46 -33 90 -72 198 -104 284 -123 340 -11 33 -24 64 -29 69 -5
6 -9 18 -9 28 0 9 -7 32 -15 50 -8 18 -33 85 -55 148 -23 63 -46 124 -51 135
-6 12 -11 27 -13 35 -2 8 -6 22 -9 30 -15 40 -42 116 -43 120 0 3 -6 19 -13
35 -7 17 -14 35 -15 40 -2 6 -6 17 -9 25 -3 8 -15 44 -27 80 -12 36 -26 69
-31 75 -5 5 -9 19 -9 31 0 13 -4 26 -10 29 -5 3 -10 15 -10 26 0 10 -4 27 -9
37 -8 14 -17 36 -26 62 -1 3 -4 12 -7 20 -4 8 -18 51 -33 95 -15 44 -34 94
-41 112 -8 17 -14 33 -14 36 0 3 -5 18 -12 34 -6 15 -13 34 -15 41 -1 6 -5 18
-6 25 -2 6 -7 19 -10 27 -12 28 -51 135 -53 143 -1 4 -3 9 -4 12 -1 3 -3 8 -5
13 -1 4 -5 14 -8 22 -7 17 -65 178 -67 185 0 3 -7 20 -15 39 -8 20 -15 39 -15
44 0 5 -9 31 -20 58 -10 27 -76 207 -146 399 -70 193 -144 400 -166 460 -22
61 -42 117 -45 127 -3 10 -14 15 -29 13 -13 -1 -24 2 -24 7 0 5 -5 6 -11 2
-17 -10 -89 -12 -95 -2 -3 5 -10 5 -16 2 -18 -11 -288 -10 -288 1 0 7 -3 7 -8
0 -9 -13 -62 -15 -62 -3 0 5 -5 6 -11 2 -17 -10 -89 -12 -95 -2 -3 5 -10 6
-15 3 -16 -10 -89 -13 -89 -3 0 5 -5 6 -12 2 -16 -10 -148 -11 -148 -1 0 12
-20 8 -26 -6z"/>
</g>
</svg>
